<svg width="14" height="16" viewBox="0 0 14 16" fill="none" xmlns="http://www.w3.org/2000/svg">
<path d="M11.0197 8.48255C11.0055 7.89348 11.1563 7.31217 11.455 6.80427C11.7538 6.29638 12.1886 5.88214 12.7104 5.60834C12.3819 5.15215 11.952 4.77837 11.4546 4.5164C10.9572 4.25442 10.4058 4.11138 9.84378 4.09853C8.64253 4.00385 7.32884 4.79933 6.84868 4.79933C6.34146 4.79933 5.17656 4.13234 4.26273 4.13234C2.37589 4.167 0.368164 5.643 0.368164 8.64486C0.37702 9.58168 0.541866 10.5105 0.855936 11.3931C1.28876 12.6358 2.85267 15.6816 4.48421 15.6309C5.33718 15.6106 5.93992 15.0248 7.04987 15.0248C8.12601 15.0248 8.6848 15.6309 9.63582 15.6309C11.2809 15.6072 12.696 12.8412 13.1086 11.5926C12.4906 11.3406 11.9618 10.9099 11.5899 10.3558C11.2179 9.80161 11.0197 9.14912 11.0205 8.48171L11.0197 8.48255ZM9.10409 2.92517C9.40304 2.59583 9.62976 2.20757 9.76967 1.78536C9.90958 1.36314 9.95959 0.916328 9.91648 0.473633C9.0299 0.568933 8.21053 0.990824 7.61795 1.65713C7.31501 1.98108 7.08185 2.36382 6.93294 2.7816C6.78403 3.19939 6.72255 3.64332 6.75231 4.08585C7.20884 4.09554 7.66099 3.99513 8.0705 3.79309C8.48001 3.59106 8.83484 3.29336 9.10494 2.92517H9.10409Z" fill="black"/>
</svg>
