<svg width="16" height="16" viewBox="0 0 16 16" fill="none" xmlns="http://www.w3.org/2000/svg">
<path d="M15.2678 8.05284C15.2674 6.60408 14.8519 5.18576 14.0705 3.9658C13.2891 2.74583 12.1745 1.77531 10.8587 1.16914C9.54281 0.562968 8.08083 0.346521 6.64578 0.54543C5.21074 0.744338 3.86274 1.35027 2.76137 2.29149C1.66 3.23271 0.851382 4.4698 0.431248 5.85631C0.0111135 7.24281 -0.00294502 8.72067 0.390741 10.1149C0.784426 11.5092 1.56937 12.7614 2.65264 13.7234C3.7359 14.6854 5.07214 15.3169 6.50314 15.543V10.243H4.5792V8.05284H6.5023V6.38329C6.461 5.99326 6.506 5.59891 6.6341 5.22821C6.7622 4.8575 6.97027 4.51951 7.24356 4.23818C7.51685 3.95685 7.84867 3.73907 8.21551 3.60028C8.58235 3.46149 8.97523 3.40508 9.36629 3.43506C9.93555 3.44316 10.5034 3.49328 11.0653 3.585V5.44997H10.1084C9.94564 5.42848 9.78012 5.44385 9.62411 5.49496C9.46809 5.54608 9.32555 5.63162 9.20706 5.74526C9.08857 5.8589 8.99715 5.99773 8.93956 6.15148C8.88197 6.30522 8.85969 6.46995 8.87436 6.63348V8.05284H10.9802L10.6433 10.243H8.87436V15.5397C10.6567 15.2569 12.2798 14.3476 13.4518 12.9753C14.6237 11.6029 15.2676 9.85751 15.2678 8.05284Z" fill="#009EE2"/>
</svg>
