<svg width="16" height="16" viewBox="0 0 16 16" fill="none" xmlns="http://www.w3.org/2000/svg">
<path d="M15.5886 8.22499C15.5895 7.70892 15.5456 7.19376 15.4573 6.6853H8.31445V9.60305H12.4072C12.3232 10.0693 12.1456 10.5137 11.8852 10.9094C11.6247 11.3052 11.2868 11.644 10.8917 11.9055V13.7988H13.3336C14.0786 13.0793 14.6644 12.2114 15.0528 11.2513C15.4412 10.2911 15.6238 9.26013 15.5886 8.22499Z" fill="#009EE2"/>
<path d="M8.31198 15.6286C10.1579 15.6803 11.9541 15.026 13.3342 13.799L10.8923 11.9057C10.3043 12.282 9.63831 12.5195 8.94486 12.6001C8.25141 12.6806 7.54871 12.6021 6.89013 12.3705C6.23154 12.139 5.63435 11.7604 5.14391 11.2636C4.65347 10.7667 4.28266 10.1647 4.05963 9.50317H1.54297V11.4551C2.17373 12.7096 3.14071 13.7642 4.33597 14.5012C5.53124 15.2382 6.90778 15.6285 8.31198 15.6286Z" fill="#34A853"/>
<path d="M4.05998 9.50032C3.74268 8.5595 3.74268 7.54057 4.05998 6.59975V4.65088H1.54332C1.01331 5.70668 0.737305 6.87169 0.737305 8.05306C0.737305 9.23442 1.01331 10.3995 1.54332 11.4552L4.05998 9.50032Z" fill="#FBBC04"/>
<path d="M8.31198 3.47275C9.39233 3.45518 10.4363 3.86304 11.2186 4.60832L13.3837 2.44527C12.0113 1.1576 10.1937 0.451207 8.31198 0.474176C6.90746 0.474596 5.5307 0.865378 4.3354 1.60289C3.14011 2.34041 2.17332 3.39563 1.54297 4.65076L4.05963 6.60265C4.35257 5.70208 4.92025 4.91589 5.68295 4.35451C6.44564 3.79314 7.36503 3.48478 8.31198 3.47275Z" fill="#EA4335"/>
</svg>
