<svg width="174" height="104" viewBox="0 0 174 104" fill="none" xmlns="http://www.w3.org/2000/svg">
<path fill-rule="evenodd" clip-rule="evenodd" d="M121.025 64.5188V65.7849V76.0645V76.907V78.5931V95.5145V101.208L118.97 104H124.716H133.518H141.161L139.475 101.208H139.423V79.015L140.529 75.9582H136.576H137.84H139.37C139.738 71.4779 143.533 67.8935 148.066 67.8935C152.705 67.8935 156.448 71.4779 156.816 75.9582H158.346H159.663H155.657L156.765 79.015V101.208H156.712L154.709 104H162.563H171.049H176.848L175.214 101.208V95.5145V78.5931V76.907V76.0645V65.7849V64.5188V60.8827V60.4075L180.01 56.665H180.168V56.5064V56.2961H175.214V52.6588V51.6589V50.8146V50.2354H121.025V50.8146V51.6589V52.6588V56.2961H116.018V56.4024V56.665H116.281L121.025 60.4075V60.8827V64.5188Z" fill="#DF5173"/>
<path fill-rule="evenodd" clip-rule="evenodd" d="M119.496 72.4266V78.2241V78.6994V79.1729H119.128V88.8715V89.5042V93.1427V93.7743V102.472V103.579V103.999H55.7162V103.579V102.472V93.7743V93.1427V89.5042V88.8715V79.1723H55.03V78.6988V78.2235V72.426V71.6358H55.9259V66.2061V53.0271V52.184V40.3769V39.5314V15.3385H54.6616V13.7564H57.1914V11.3846H58.0879V10.6479H58.3511L59.3528 8.85539L60.4068 6.95714L61.4085 8.85539L62.4108 10.6479H62.6746V11.3846H77.6443V13.7564H80.2269V15.3385H78.804V39.5314V40.3769V41.0096H85.0239L86.0262 33.4701L86.2372 31.4679V20.7148H84.5504V19.3958H86.2372V17.9723H87.6607V19.3958H89.3468V20.7148H87.6607V31.2041L87.9768 33.4695L88.9779 41.009H95.9886V40.3763V39.5308V15.3379H94.7231V13.7558H97.2541V11.384H111.908V10.6473H112.171L113.173 8.85479L114.174 6.95654L115.228 8.85479L116.178 10.6473H116.494V11.384H117.707V13.7558H120.289V15.3379H118.867V39.5308V40.3763V52.1834V53.0265V66.2055V71.6352H119.498V72.4266H119.496ZM95.9868 43.382H88.9232V47.8106L89.345 48.4939L91.7697 52.291H95.9868V52.1846V43.382ZM85.0222 43.382H78.8022V52.1846V52.291H82.1763L84.5486 48.4939L85.0222 47.8106V43.382ZM94.8794 62.7797C94.669 58.9844 91.7168 55.9805 87.9744 55.7173C91.7168 55.9799 94.669 59.0373 94.8794 62.7797ZM59.7218 52.818H75.0081V52.1852V41.2211H59.7218V52.1852V52.818ZM65.2032 43.0665C64.6768 43.0665 64.2021 43.382 64.2021 43.7498V51.6048H66.2049V43.7498C66.2043 43.382 65.7831 43.0665 65.2032 43.0665ZM69.1565 43.0665C68.6296 43.0665 68.1548 43.382 68.1548 43.7498V51.6048H70.1577V43.7498C70.1577 43.382 69.7364 43.0665 69.1565 43.0665ZM62.9366 56.6655H60.8809V54.6098H62.9366V56.6655ZM73.7426 56.6655H71.6347V54.6098H73.7426V56.6655ZM105.264 43.0665C104.737 43.0665 104.263 43.382 104.263 43.7498V51.6048H106.266V43.7498C106.266 43.382 105.843 43.0665 105.264 43.0665ZM109.218 43.0665C108.69 43.0665 108.269 43.382 108.269 43.7498V51.6048H110.219V43.7498C110.219 43.382 109.798 43.0665 109.218 43.0665ZM102.998 56.6655H100.941V54.6098H102.998V56.6655ZM113.804 56.6655H111.748V54.6098H113.804V56.6655ZM59.5626 102.472H60.9855V88.556C60.9855 84.2866 67.2583 80.8074 67.2583 80.8074C67.2583 80.8074 73.5317 84.2866 73.5317 88.556V102.472H75.5874V93.7743V93.1427V89.5042V88.8715V79.1723H59.5626V88.8709V89.5036V93.1421V93.7736V102.472ZM79.4356 102.472H81.0688V88.556C81.0688 84.2866 87.3422 80.8074 87.3422 80.8074C87.3422 80.8074 93.615 84.2866 93.615 88.556V102.472H95.4075V93.7743V93.1427V89.5042V88.8715V79.1723H79.4356V88.8709V89.5036V93.1421V93.7736V102.472ZM99.3074 102.472H101.1V88.556C101.1 84.2866 107.373 80.8074 107.373 80.8074C107.373 80.8074 113.646 84.2866 113.646 88.556V102.472H115.226V93.7743V93.1427V89.5042V88.8715V79.1723H99.308V88.8709V89.5036V93.1421V93.7736L99.3074 102.472Z" fill="#DF5173"/>
<path fill-rule="evenodd" clip-rule="evenodd" d="M10.0138 17.8172L10.8574 25.7233L38.8469 22.6665L38.0044 14.7599L10.0138 17.8172ZM32.3114 89.9796C17.7101 89.9796 5.11163 95.7777 -0.000259399 104H64.7295C59.5107 95.7777 46.9656 89.9796 32.3114 89.9796ZM44.7507 68.6313L15.0217 71.9002L15.1791 73.6921L44.9622 70.4238L44.7507 68.6313ZM33.2603 2.26653L11.8591 4.586L11.7011 3.00562L33.1028 0.685547L33.2603 2.26653ZM38.5837 12.0708L8.80116 15.2863L9.01208 17.131L38.7417 13.8627L38.5837 12.0708ZM39.7963 23.351L10.0667 26.6199L10.2247 28.4658L40.0078 25.1969L39.7963 23.351ZM41.0089 34.6846L11.2787 37.9529L11.4896 39.7448L41.2192 36.5305L41.0089 34.6846ZM42.2738 45.9659L12.4919 49.233L12.7551 51.0778L42.4847 47.8107L42.2738 45.9659ZM43.4864 57.2977L13.7568 60.5666L13.9677 62.4114L43.6967 59.1413L43.4864 57.2977ZM14.6527 14.1265L13.651 5.0613L31.6258 3.11018L32.6275 12.1754L14.6527 14.1265ZM26.8817 7.59052L27.199 10.8059L30.3086 10.4905L29.9914 7.27443C29.8856 6.37908 29.096 5.69287 28.2529 5.79803C27.4093 5.90379 26.7759 6.69457 26.8817 7.59052ZM16.1814 8.80373L16.5504 12.018L19.6601 11.649L19.2917 8.43477C19.1848 7.53764 18.3952 6.90548 17.5521 7.01064C16.7084 7.06352 16.0757 7.85312 16.1814 8.80373ZM21.5054 8.22267L21.8738 11.4387L24.9835 11.0697L24.6151 7.85371C24.5622 6.95836 23.772 6.27214 22.8755 6.43196C22.0318 6.48484 21.4525 7.27444 21.5054 8.22267ZM35.1056 16.6587L35.6843 21.8752L37.5297 21.6648L36.9504 16.4466C36.8969 16.0248 36.4757 15.7087 35.9487 15.7604C35.4211 15.8133 35.0527 16.1834 35.1056 16.6587ZM17.0245 64.8883L17.6572 70.1077L19.4497 69.8962L18.8699 64.678C18.817 64.2556 18.3958 63.9407 17.8682 63.9924C17.3941 64.0981 17.0245 64.4677 17.0245 64.8883ZM19.6078 64.5716L20.187 69.8445L22.0312 69.6324L21.4519 64.4148C21.3997 63.9924 20.9772 63.6769 20.4508 63.7298C19.9244 63.782 19.5549 64.2045 19.6078 64.5716ZM22.1905 64.3613L22.7703 69.5285L24.5628 69.3692L24.0352 64.0981C23.9823 63.6763 23.5088 63.4119 22.9812 63.4654C22.5071 63.5188 22.1382 63.8884 22.1905 64.3613ZM24.7203 64.0452L25.3013 69.2617L27.1455 69.0514L26.5656 63.8349C26.5127 63.4113 26.0909 63.1481 25.5645 63.1481C25.0369 63.2544 24.6686 63.6246 24.7203 64.0452ZM27.3041 63.7292L27.8834 68.9991L29.6759 68.7888L29.1495 63.5717C29.0966 63.1487 28.6219 62.8326 28.1472 62.8855C27.6202 62.9384 27.2512 63.3584 27.3041 63.7292ZM29.8339 63.5188L30.4138 68.683L32.2592 68.525L31.7316 63.2538C31.6787 62.832 31.2052 62.5694 30.677 62.6217C30.1506 62.6746 29.781 63.043 29.8339 63.5188ZM32.4172 63.2016L32.9959 68.4198L34.8412 68.2095L34.262 63.0429C34.2097 62.5694 33.735 62.3056 33.2609 62.3056C32.7327 62.4114 32.3643 62.7798 32.4172 63.2016ZM34.9999 62.9384L35.5269 68.156L37.4245 67.9463L36.8441 62.7263C36.7912 62.3056 36.3171 61.9902 35.7901 62.043C35.316 62.0953 34.9464 62.516 34.9999 62.9384ZM37.5297 62.6746L38.1095 67.8934L39.9549 67.6831L39.375 62.4637C39.3222 62.043 38.8475 61.7269 38.3733 61.7804C37.898 61.8327 37.4768 62.2005 37.5297 62.6746ZM40.1129 62.3591L40.6393 67.5767L42.5364 67.3652L41.9571 62.2005C41.9048 61.7264 41.4824 61.4632 40.956 61.4632C40.429 61.5695 40.0601 61.9367 40.1129 62.3591ZM15.8125 53.4501L16.3401 58.6684L18.2371 58.4581L17.6578 53.238C17.605 52.818 17.1831 52.5542 16.6561 52.5542C16.1286 52.6594 15.7602 53.0277 15.8125 53.4501ZM18.3429 53.1869L18.975 58.4046L20.7675 58.1942L20.1876 52.9748C20.1348 52.5542 19.7135 52.2387 19.1853 52.2916C18.7118 52.3427 18.3429 52.7645 18.3429 53.1869ZM20.9256 52.9219L21.5054 58.142L23.3508 57.931L22.7703 52.6588C22.718 52.291 22.2968 51.9749 21.7692 52.0278C21.2422 52.0801 20.8727 52.449 20.9256 52.9219ZM23.456 52.6077L24.0875 57.8253L25.88 57.6684L25.3536 52.449C25.2484 51.9749 24.8266 51.7117 24.2996 51.7117C23.8243 51.8163 23.456 52.1852 23.456 52.6077ZM26.038 52.3427L26.6191 57.5621L28.4633 57.3494L27.8828 52.1324C27.8299 51.7117 27.4087 51.3945 26.8811 51.4461C26.3547 51.4984 25.9857 51.922 26.038 52.3427ZM28.6213 52.0801L29.2012 57.2977L30.9931 57.0862L30.4667 51.8163C30.4138 51.4461 29.9385 51.1301 29.465 51.1835C28.9374 51.2358 28.5684 51.6048 28.6213 52.0801ZM31.1517 51.7646L31.7316 56.9817L33.5769 56.823L32.9959 51.6048C32.9959 51.1295 32.523 50.8663 31.9948 50.8663C31.4678 50.9726 31.1 51.3416 31.1517 51.7646ZM33.735 51.4984L34.3148 56.7178L36.1073 56.5069L35.5797 51.2881C35.5275 50.8663 35.0533 50.5502 34.5786 50.6565C34.0511 50.6559 33.6815 51.0778 33.735 51.4984ZM36.3171 51.2358L36.8441 56.4552L38.7417 56.2437L38.1624 50.9726C38.1095 50.6037 37.6348 50.2876 37.1084 50.3405C36.6331 50.3933 36.2125 50.7623 36.3171 51.2358ZM38.8475 50.9191L39.4273 56.1398L41.2727 55.9799L40.6928 50.7623C40.6399 50.287 40.1652 50.0244 39.6905 50.0244C39.217 50.1296 38.794 50.4985 38.8475 50.9191ZM14.5476 42.012L15.1269 47.2302L16.9716 47.0716L16.3924 41.8017C16.3401 41.378 15.9182 41.1148 15.3912 41.1677C14.9159 41.2212 14.4947 41.5901 14.5476 42.012ZM17.1297 41.747L17.6578 46.9664L19.5549 46.7555L18.975 41.5367C18.9221 41.1148 18.4486 40.7987 17.9733 40.8522C17.4469 40.9045 17.078 41.3252 17.1297 41.747ZM19.6601 41.4844L20.2393 46.7026L22.0847 46.4923L21.5054 41.2741C21.4525 40.8522 21.0307 40.5361 20.5043 40.589C20.029 40.6419 19.6601 41.0109 19.6601 41.4844ZM22.2433 41.1677L22.8226 46.3871L24.668 46.2285L24.0869 41.0109C24.0346 40.5356 23.6134 40.2729 23.0858 40.3252C22.56 40.3781 22.1905 40.7459 22.2433 41.1677ZM24.7737 40.9045L25.4071 46.1227L27.1996 45.9124L26.6714 40.6936C26.5662 40.2724 26.1444 39.9557 25.6174 40.0086C25.1433 40.062 24.7737 40.4827 24.7737 40.9045ZM27.357 40.6419L27.9363 45.8595L29.781 45.648L29.2018 40.4316C29.1495 40.0092 28.7271 39.6919 28.2007 39.7454C27.6725 39.7977 27.3041 40.2195 27.357 40.6419ZM29.9391 40.3781L30.5196 45.5423L32.312 45.3848L31.785 40.1678C31.7322 39.6913 31.258 39.4287 30.7305 39.4816C30.2558 39.5327 29.8862 39.9034 29.9391 40.3781ZM32.4695 40.062L33.0493 45.2785L34.8941 45.0682L34.3148 39.8517C34.3148 39.4281 33.8401 39.1114 33.3131 39.2178C32.7856 39.2695 32.4172 39.6384 32.4695 40.062ZM35.0528 39.7976L35.632 45.0159L37.4245 44.8056L36.8963 39.5861C36.8441 39.1655 36.3699 38.8494 35.8952 38.9023C35.3688 38.9534 34.9999 39.3758 35.0528 39.7976ZM37.5826 39.5327L38.1624 44.6998L40.0601 44.5424L39.4802 39.3223C39.4273 38.8488 38.9538 38.5862 38.4262 38.6391C37.898 38.6902 37.5297 39.0597 37.5826 39.5327ZM13.3356 30.6261L13.862 35.7902L15.7073 35.6328L15.1275 30.3629C15.1275 29.9393 14.6533 29.6767 14.1786 29.7277C13.6516 29.7812 13.2298 30.152 13.3356 30.6261ZM15.8654 30.3106L16.4452 35.5271L18.2906 35.3173L17.7095 30.152C17.6573 29.6773 17.2354 29.4141 16.7078 29.4141C16.2337 29.518 15.8125 29.887 15.8654 30.3106ZM18.4486 29.9945L18.975 35.2644L20.8727 35.0535L20.2399 29.8341C20.2399 29.4135 19.7664 29.0974 19.2923 29.202C18.7641 29.202 18.3958 29.6244 18.4486 29.9945ZM20.9778 29.7812L21.5589 35.0012L23.4031 34.7909L22.8232 29.518C22.7703 29.1491 22.3491 28.8348 21.8221 28.8865C21.3474 28.9388 20.9778 29.3083 20.9778 29.7812ZM23.5611 29.4652L24.1404 34.6846L25.9858 34.4748L25.4065 29.3083C25.3536 28.8348 24.9318 28.571 24.4048 28.571C23.8772 28.6756 23.5088 29.0445 23.5611 29.4652ZM26.0909 29.202L26.7237 34.422L28.5161 34.2111L27.9886 28.991C27.8834 28.5704 27.4622 28.2549 26.934 28.3595C26.4605 28.3595 26.0909 28.7813 26.0909 29.202ZM28.6748 28.9388L29.2547 34.1588L31.1 33.9467L30.519 28.7284C30.4667 28.3066 30.0442 27.9917 29.5173 28.0434C28.9897 28.0963 28.6213 28.4658 28.6748 28.9388ZM31.2569 28.6221L31.8361 33.8403L33.6286 33.6294L33.1022 28.4658C32.9953 27.9917 32.574 27.7255 32.0471 27.7255C31.5729 27.8313 31.2046 28.2014 31.2569 28.6221ZM33.7867 28.3595L34.3671 33.5759L36.2125 33.3662L35.632 28.1486C35.5791 27.7249 35.1579 27.4095 34.6303 27.5152C34.1039 27.5152 33.735 27.9359 33.7867 28.3595ZM36.3705 28.0963L36.9504 33.3133L38.7423 33.103L38.2159 27.8848C38.163 27.4629 37.6877 27.1469 37.2136 27.2003C36.6866 27.2526 36.3171 27.6216 36.3705 28.0963ZM12.0695 19.1873L12.6505 24.4073L14.4947 24.1958L13.9148 18.9247C13.8619 18.5558 13.3884 18.2397 12.8608 18.292C12.3867 18.3448 12.0172 18.7144 12.0695 19.1873ZM14.6527 18.8706L15.1791 24.0907L17.0245 23.9302L16.4452 18.7138C16.4452 18.2385 15.9705 17.9735 15.4958 17.9735C14.9688 18.0799 14.5476 18.45 14.6527 18.8706ZM17.1825 18.608L17.7624 23.8251L19.6078 23.6148L19.0279 18.3971C18.975 17.9735 18.5538 17.658 18.0256 17.7638C17.4992 17.7638 17.1297 18.1874 17.1825 18.608ZM19.7658 18.3448L20.2928 23.5619L22.1899 23.3516L21.5583 18.1321C21.5583 17.7115 21.083 17.3954 20.6089 17.4489C20.0813 17.5012 19.6601 17.8689 19.7658 18.3448ZM22.2968 18.027L22.8761 23.2452L24.7203 23.0878L24.1404 17.8683C24.0875 17.3942 23.6663 17.131 23.1387 17.131C22.6646 17.2374 22.2968 17.6051 22.2968 18.027ZM24.8789 17.7638L25.4588 22.982L27.3041 22.7723L26.7242 17.5523C26.6714 17.1316 26.2501 16.8155 25.7226 16.9213C25.1956 16.9213 24.8266 17.3419 24.8789 17.7638ZM27.4093 17.5012L27.9886 22.7194L29.8339 22.5091L29.2547 17.2897C29.2018 16.869 28.7799 16.5529 28.2529 16.6058C27.7782 16.6587 27.4093 17.0259 27.4093 17.5012ZM29.9914 17.1839L30.5718 22.4021L32.4172 22.2453L31.8361 17.0253C31.7839 16.5518 31.3626 16.2892 30.8344 16.3414C30.3086 16.3949 29.9391 16.7627 29.9914 17.1839ZM32.5224 16.9213L33.1551 22.1396L34.9458 21.9286L34.4194 16.7098C34.3142 16.2898 33.8918 15.9719 33.3654 16.0765C32.8907 16.0759 32.5224 16.4995 32.5224 16.9213ZM11.2264 29.1491L12.0695 37.0041L40.0601 33.9467L39.217 26.0929L11.2264 29.1491ZM12.439 40.4827L13.3356 48.3376L41.3256 45.2791L40.4296 37.4259L12.439 40.4827ZM13.7039 51.8163L14.5476 59.6713L42.5364 56.6133L41.6933 48.7589L13.7039 51.8163ZM14.9159 63.0952L15.8119 71.0037L43.749 67.9463L42.9065 60.0396L14.9159 63.0952ZM16.1814 74.4294L17.9739 91.087C18.3957 90.9795 18.817 90.8755 19.2923 90.7169L17.921 78.5402C17.8159 77.3299 18.8705 76.2748 20.3469 76.0645C21.8221 75.9052 23.087 76.7477 23.1933 78.0138L24.4577 89.7164C24.9318 89.6629 25.3536 89.61 25.8283 89.5571L24.5634 77.8558C24.4582 76.6431 25.5122 75.5375 26.9352 75.3783C28.3587 75.2184 29.6765 76.0639 29.7816 77.2765L31.1006 89.1894C31.5218 89.1365 31.9431 89.1365 32.312 89.1365H32.4701L31.1523 77.1167C31.0471 75.9052 32.1017 74.7984 33.5241 74.6391C35.0005 74.4811 36.2654 75.3254 36.4234 76.5368L37.7935 89.3997C38.2682 89.4526 38.7423 89.5037 39.217 89.5571L37.7935 76.3794C37.6354 75.2184 38.7423 74.0599 40.1658 73.9018C41.5888 73.7444 42.9077 74.5869 43.0129 75.8512L44.6461 90.5582C45.1737 90.6628 45.7536 90.8209 46.2806 90.9789L44.172 71.3726L16.1814 74.4294Z" fill="#DF5173"/>
</svg>
